<svg xmlns="http://www.w3.org/2000/svg" width="20" height="20" viewBox="0 0 20 20" fill="none">
  <path d="M4.16667 16.6666C4.16667 17.1087 4.34226 17.5326 4.65482 17.8451C4.96738 18.1577 5.39131 18.3333 5.83333 18.3333H14.1667C14.6087 18.3333 15.0326 18.1577 15.3452 17.8451C15.6577 17.5326 15.8333 17.1087 15.8333 16.6666V6.66663H17.5V4.99996H14.1667V3.33329C14.1667 2.89127 13.9911 2.46734 13.6785 2.15478C13.3659 1.84222 12.942 1.66663 12.5 1.66663H7.5C7.05797 1.66663 6.63405 1.84222 6.32149 2.15478C6.00893 2.46734 5.83333 2.89127 5.83333 3.33329V4.99996H2.5V6.66663H4.16667V16.6666ZM7.5 3.33329H12.5V4.99996H7.5V3.33329ZM6.66667 6.66663H14.1667V16.6666H5.83333V6.66663H6.66667Z" fill="#F74747"/>
  <path d="M7.5 8.33331H9.16667V15H7.5V8.33331ZM10.8333 8.33331H12.5V15H10.8333V8.33331Z" fill="#F74747"/>
</svg>