<svg xmlns="http://www.w3.org/2000/svg" width="25" height="24" viewBox="0 0 25 24" fill="none">
  <path d="M20.5 4H4.5C3.4 4 2.51 4.9 2.51 6L2.5 18C2.5 19.1 3.4 20 4.5 20H20.5C21.6 20 22.5 19.1 22.5 18V6C22.5 4.9 21.6 4 20.5 4ZM20.1 8.25L13.03 12.67C12.71 12.87 12.29 12.87 11.97 12.67L4.9 8.25C4.79973 8.19371 4.71192 8.11766 4.64189 8.02645C4.57186 7.93525 4.52106 7.83078 4.49258 7.71937C4.46409 7.60796 4.4585 7.49194 4.47616 7.37831C4.49381 7.26468 4.53434 7.15581 4.59528 7.0583C4.65623 6.96079 4.73632 6.87666 4.83073 6.811C4.92513 6.74533 5.03187 6.69951 5.1445 6.6763C5.25712 6.65309 5.37328 6.65297 5.48595 6.67595C5.59863 6.69893 5.70546 6.74453 5.8 6.81L12.5 11L19.2 6.81C19.2945 6.74453 19.4014 6.69893 19.514 6.67595C19.6267 6.65297 19.7429 6.65309 19.8555 6.6763C19.9681 6.69951 20.0749 6.74533 20.1693 6.811C20.2637 6.87666 20.3438 6.96079 20.4047 7.0583C20.4657 7.15581 20.5062 7.26468 20.5238 7.37831C20.5415 7.49194 20.5359 7.60796 20.5074 7.71937C20.4789 7.83078 20.4281 7.93525 20.3581 8.02645C20.2881 8.11766 20.2003 8.19371 20.1 8.25Z" fill="black"/>
</svg>