<svg xmlns="http://www.w3.org/2000/svg" width="20" height="19" viewBox="0 0 20 19" fill="none">
  <path d="M9.9998 -9.91821e-05C4.47766 -9.91821e-05 0 3.53531 0 7.89906C0 10.702 1.85458 13.163 4.63972 14.5677L3.69748 18.0849C3.66142 18.1929 3.69133 18.3072 3.76959 18.385C3.82348 18.4393 3.89539 18.4692 3.97345 18.4692C4.03368 18.4692 4.09351 18.4453 4.1476 18.4033L8.1991 15.6661C8.78752 15.7501 9.38782 15.798 9.9998 15.798C15.5219 15.798 20 12.2628 20 7.89906C20 3.53531 15.5219 -9.91821e-05 9.9998 -9.91821e-05Z" fill="black"/>
</svg>