<svg xmlns="http://www.w3.org/2000/svg" width="20" height="20" viewBox="0 0 20 20" fill="none">
  <path d="M16.7306 4.85576L7.49997 14.0849L3.89431 10.4792C3.79318 10.3781 3.67311 10.2978 3.54098 10.2431C3.40884 10.1884 3.26721 10.1602 3.12418 10.1602C2.98116 10.1602 2.83953 10.1884 2.70739 10.2431C2.57526 10.2978 2.45519 10.3781 2.35406 10.4792C2.25292 10.5803 2.1727 10.7004 2.11796 10.8325C2.06323 10.9647 2.03506 11.1063 2.03506 11.2493C2.03506 11.3924 2.06323 11.534 2.11796 11.6661C2.1727 11.7983 2.25292 11.9183 2.35406 12.0195L6.72887 16.3943C6.72892 16.3943 6.72897 16.3944 6.72902 16.3944C6.83002 16.4957 6.95002 16.5761 7.08214 16.631C7.21433 16.6859 7.35605 16.7141 7.49918 16.7141C7.64232 16.7141 7.78404 16.6859 7.91622 16.631C8.04835 16.5761 8.16835 16.4957 8.26935 16.3944C8.2694 16.3944 8.26945 16.3943 8.2695 16.3943L18.1632 6.50058L18.1648 6.50215L18.2709 6.39602C18.4751 6.19177 18.5899 5.91475 18.5899 5.62589C18.5899 5.33704 18.4751 5.06002 18.2709 4.85577C18.0666 4.65151 17.7896 4.53677 17.5007 4.53677C17.2119 4.53677 16.9349 4.65151 16.7306 4.85576C16.7306 4.85576 16.7306 4.85576 16.7306 4.85576Z" fill="#DBE2EC" stroke="#DBE2EC" stroke-width="0.3"/>
</svg>