<svg xmlns="http://www.w3.org/2000/svg" width="18" height="18" viewBox="0 0 18 18" fill="none">
  <path d="M16.3472 5.65948L7.34717 14.6595C7.26878 14.7381 7.17563 14.8006 7.07308 14.8431C6.97052 14.8857 6.86056 14.9076 6.74951 14.9076C6.63846 14.9076 6.5285 14.8857 6.42594 14.8431C6.32338 14.8006 6.23024 14.7381 6.15185 14.6595L2.21435 10.722C2.13587 10.6435 2.07361 10.5503 2.03113 10.4478C1.98866 10.3452 1.9668 10.2353 1.9668 10.1243C1.9668 10.0133 1.98866 9.90342 2.03113 9.80088C2.07361 9.69833 2.13587 9.60515 2.21435 9.52667C2.29284 9.44818 2.38601 9.38593 2.48856 9.34345C2.59111 9.30097 2.70102 9.27911 2.81201 9.27911C2.92301 9.27911 3.03291 9.30097 3.13546 9.34345C3.23801 9.38593 3.33118 9.44818 3.40967 9.52667L6.75021 12.8672L15.1533 4.46557C15.3118 4.30707 15.5267 4.21802 15.7509 4.21802C15.9751 4.21802 16.1901 4.30707 16.3486 4.46557C16.5071 4.62408 16.5961 4.83907 16.5961 5.06323C16.5961 5.2874 16.5071 5.50238 16.3486 5.66089L16.3472 5.65948Z" fill="black"/>
</svg>