<svg xmlns="http://www.w3.org/2000/svg" width="25" height="24" viewBox="0 0 25 24" fill="none">
  <path fill-rule="evenodd" clip-rule="evenodd" d="M5.5 5C4.94772 5 4.5 5.44772 4.5 6V20C4.5 20.5523 4.94772 21 5.5 21H19.5C20.0523 21 20.5 20.5523 20.5 20V6C20.5 5.44772 20.0523 5 19.5 5H5.5ZM2.5 6C2.5 4.34315 3.84315 3 5.5 3H19.5C21.1569 3 22.5 4.34315 22.5 6V20C22.5 21.6569 21.1569 23 19.5 23H5.5C3.84315 23 2.5 21.6569 2.5 20V6Z" fill="#CBD4E3"/>
  <path fill-rule="evenodd" clip-rule="evenodd" d="M16.5 1C17.0523 1 17.5 1.44772 17.5 2V6C17.5 6.55228 17.0523 7 16.5 7C15.9477 7 15.5 6.55228 15.5 6V2C15.5 1.44772 15.9477 1 16.5 1Z" fill="#CBD4E3"/>
  <path fill-rule="evenodd" clip-rule="evenodd" d="M8.5 1C9.05228 1 9.5 1.44772 9.5 2V6C9.5 6.55228 9.05228 7 8.5 7C7.94772 7 7.5 6.55228 7.5 6V2C7.5 1.44772 7.94772 1 8.5 1Z" fill="#CBD4E3"/>
  <path fill-rule="evenodd" clip-rule="evenodd" d="M2.5 10C2.5 9.44772 2.94772 9 3.5 9H21.5C22.0523 9 22.5 9.44772 22.5 10C22.5 10.5523 22.0523 11 21.5 11H3.5C2.94772 11 2.5 10.5523 2.5 10Z" fill="#CBD4E3"/>
</svg>