<svg xmlns="http://www.w3.org/2000/svg" width="23" height="22" viewBox="0 0 23 22" fill="none">
  <path fill-rule="evenodd" clip-rule="evenodd" d="M16.7499 2.75008C15.7374 2.75008 14.9166 3.57089 14.9166 4.58341C14.9166 5.59594 15.7374 6.41675 16.7499 6.41675C17.7624 6.41675 18.5833 5.59594 18.5833 4.58341C18.5833 3.57089 17.7624 2.75008 16.7499 2.75008ZM13.0833 4.58341C13.0833 2.55837 14.7249 0.916748 16.7499 0.916748C18.775 0.916748 20.4166 2.55837 20.4166 4.58341C20.4166 6.60846 18.775 8.25008 16.7499 8.25008C14.7249 8.25008 13.0833 6.60846 13.0833 4.58341Z" fill="black"/>
  <path fill-rule="evenodd" clip-rule="evenodd" d="M5.74992 9.16659C4.7374 9.16659 3.91659 9.9874 3.91659 10.9999C3.91659 12.0124 4.7374 12.8333 5.74992 12.8333C6.76244 12.8333 7.58325 12.0124 7.58325 10.9999C7.58325 9.9874 6.76244 9.16659 5.74992 9.16659ZM2.08325 10.9999C2.08325 8.97487 3.72487 7.33325 5.74992 7.33325C7.77496 7.33325 9.41659 8.97487 9.41659 10.9999C9.41659 13.025 7.77496 14.6666 5.74992 14.6666C3.72487 14.6666 2.08325 13.025 2.08325 10.9999Z" fill="black"/>
  <path fill-rule="evenodd" clip-rule="evenodd" d="M16.7499 15.5833C15.7374 15.5833 14.9166 16.4041 14.9166 17.4167C14.9166 18.4292 15.7374 19.25 16.7499 19.25C17.7624 19.25 18.5833 18.4292 18.5833 17.4167C18.5833 16.4041 17.7624 15.5833 16.7499 15.5833ZM13.0833 17.4167C13.0833 15.3916 14.7249 13.75 16.7499 13.75C18.775 13.75 20.4166 15.3916 20.4166 17.4167C20.4166 19.4417 18.775 21.0833 16.7499 21.0833C14.7249 21.0833 13.0833 19.4417 13.0833 17.4167Z" fill="black"/>
  <path fill-rule="evenodd" clip-rule="evenodd" d="M7.33208 11.9226C7.58698 11.4852 8.1482 11.3372 8.58561 11.5921L14.8464 15.2404C15.2839 15.4953 15.4318 16.0565 15.1769 16.494C14.922 16.9314 14.3608 17.0793 13.9234 16.8244L7.66257 13.1761C7.22516 12.9212 7.07719 12.36 7.33208 11.9226Z" fill="black"/>
  <path fill-rule="evenodd" clip-rule="evenodd" d="M15.1675 5.50557C15.4226 5.94282 15.275 6.50414 14.8378 6.75931L8.58612 10.4076C8.14887 10.6628 7.58755 10.5152 7.33238 10.078C7.07721 9.6407 7.22481 9.07939 7.66207 8.82422L13.9137 5.17588C14.351 4.92071 14.9123 5.06832 15.1675 5.50557Z" fill="black"/>
</svg>