<svg xmlns="http://www.w3.org/2000/svg" width="30" height="30" viewBox="0 0 30 30" fill="none">
  <path d="M11.85 4.33591C9.73301 3.32517 6.77403 2.83005 2.8125 2.81247C2.43889 2.80739 2.07261 2.91634 1.7625 3.12478C1.50796 3.29682 1.2996 3.52878 1.15575 3.80025C1.01189 4.07172 0.936944 4.37438 0.937503 4.68161V21.4453C0.937503 22.5785 1.74375 23.4334 2.8125 23.4334C6.97676 23.4334 11.1539 23.8224 13.6559 26.1873C13.6901 26.2198 13.7331 26.2415 13.7796 26.2497C13.826 26.258 13.8739 26.2524 13.9172 26.2337C13.9606 26.215 13.9974 26.1839 14.0233 26.1444C14.0491 26.1049 14.0627 26.0587 14.0625 26.0115V6.25895C14.0626 6.12569 14.0341 5.99395 13.9789 5.87265C13.9237 5.75134 13.8431 5.6433 13.7426 5.55583C13.1695 5.06589 12.5329 4.65554 11.85 4.33591V4.33591ZM28.2375 3.12302C27.9272 2.9151 27.5609 2.80676 27.1875 2.81247C23.226 2.83005 20.267 3.32282 18.15 4.33591C17.4672 4.65496 16.8304 5.0645 16.2568 5.55349C16.1565 5.64111 16.0761 5.7492 16.021 5.87047C15.966 5.99175 15.9375 6.12341 15.9375 6.25661V26.0103C15.9375 26.0557 15.9508 26.1 15.9759 26.1378C16.001 26.1756 16.0367 26.2051 16.0785 26.2227C16.1203 26.2403 16.1664 26.2452 16.2109 26.2367C16.2555 26.2282 16.2965 26.2067 16.3289 26.175C17.833 24.6808 20.4727 23.4316 27.1898 23.4322C27.6871 23.4322 28.164 23.2347 28.5157 22.883C28.8673 22.5314 29.0648 22.0545 29.0648 21.5572V4.6822C29.0655 4.37436 28.9904 4.07109 28.8461 3.79916C28.7018 3.52724 28.4928 3.29502 28.2375 3.12302V3.12302Z" fill="black"/>
</svg>