<svg xmlns="http://www.w3.org/2000/svg" width="30" height="30" viewBox="0 0 30 30" fill="none">
  <path d="M15.0002 26.25C14.6238 26.2495 14.2563 26.1358 13.9455 25.9236C9.34059 22.7977 7.34665 20.6543 6.24684 19.3143C3.90309 16.4578 2.78102 13.5252 2.81266 10.3494C2.84958 6.71016 5.7693 3.75 9.32126 3.75C11.9041 3.75 13.6929 5.20488 14.7347 6.4166C14.7677 6.4546 14.8085 6.48507 14.8543 6.50595C14.9001 6.52683 14.9498 6.53764 15.0002 6.53764C15.0505 6.53764 15.1002 6.52683 15.146 6.50595C15.1918 6.48507 15.2326 6.4546 15.2656 6.4166C16.3074 5.20371 18.0963 3.75 20.6791 3.75C24.231 3.75 27.1507 6.71016 27.1877 10.35C27.2193 13.5264 26.0961 16.459 23.7535 19.3148C22.6537 20.6549 20.6597 22.7982 16.0548 25.9242C15.7439 26.1362 15.3764 26.2497 15.0002 26.25V26.25Z" fill="black"/>
</svg>