<svg xmlns="http://www.w3.org/2000/svg" width="24" height="24" viewBox="0 0 24 24" fill="none">
  <path d="M19.4245 4.57547C18.4512 3.59258 17.2933 2.81167 16.0173 2.27762C14.7414 1.74357 13.3724 1.46689 11.9892 1.46349C10.606 1.46008 9.23573 1.73002 7.95714 2.25778C6.67856 2.78555 5.51685 3.56074 4.53876 4.53883C3.56067 5.51692 2.78547 6.67863 2.25771 7.95722C1.72994 9.23581 1.46001 10.6061 1.46341 11.9893C1.46682 13.3725 1.74349 14.7414 2.27754 16.0174C2.8116 17.2934 3.5925 18.4513 4.5754 19.4245C5.54866 20.4074 6.70654 21.1883 7.98251 21.7224C9.25849 22.2564 10.6274 22.5331 12.0106 22.5365C13.3939 22.5399 14.7641 22.27 16.0427 21.7422C17.3213 21.2145 18.483 20.4393 19.4611 19.4612C20.4392 18.4831 21.2144 17.3214 21.7421 16.0428C22.2699 14.7642 22.5398 13.3939 22.5364 12.0107C22.533 10.6275 22.2564 9.25856 21.7223 7.98259C21.1883 6.70661 20.4074 5.54874 19.4245 4.57547ZM8.62493 9.75C8.84743 9.75 9.06494 9.81598 9.24994 9.9396C9.43495 10.0632 9.57914 10.2389 9.66429 10.4445C9.74944 10.6501 9.77172 10.8763 9.72831 11.0945C9.6849 11.3127 9.57776 11.5132 9.42042 11.6705C9.26309 11.8278 9.06263 11.935 8.8444 11.9784C8.62617 12.0218 8.39997 11.9995 8.19441 11.9144C7.98884 11.8292 7.81314 11.685 7.68952 11.5C7.56591 11.315 7.49993 11.0975 7.49993 10.875C7.49956 10.7272 7.5284 10.5807 7.58481 10.444C7.64121 10.3074 7.72406 10.1832 7.8286 10.0787C7.93314 9.97414 8.05731 9.89129 8.19397 9.83488C8.33063 9.77848 8.47709 9.74963 8.62493 9.75ZM16.4845 14.7267C15.922 16.6158 14.1313 18 12.0023 18C9.87321 18 8.08258 16.6158 7.5154 14.7267C7.49953 14.6705 7.49704 14.6113 7.50812 14.5539C7.51919 14.4965 7.54353 14.4425 7.57919 14.3962C7.61484 14.3499 7.66083 14.3125 7.71348 14.2872C7.76613 14.2618 7.82399 14.2491 7.88243 14.25H16.1179C16.1763 14.2491 16.2341 14.2619 16.2867 14.2873C16.3393 14.3127 16.3852 14.3501 16.4208 14.3964C16.4564 14.4427 16.4807 14.4967 16.4918 14.554C16.5028 14.6114 16.5003 14.6705 16.4845 14.7267ZM15.3749 12C15.1524 12 14.9349 11.934 14.7499 11.8104C14.5649 11.6868 14.4207 11.5111 14.3356 11.3055C14.2504 11.1 14.2281 10.8738 14.2715 10.6555C14.315 10.4373 14.4221 10.2368 14.5794 10.0795C14.7368 9.92217 14.9372 9.81503 15.1555 9.77162C15.3737 9.72821 15.5999 9.75049 15.8054 9.83564C16.011 9.92079 16.1867 10.065 16.3103 10.25C16.4339 10.435 16.4999 10.6525 16.4999 10.875C16.5003 11.0228 16.4715 11.1693 16.415 11.306C16.3586 11.4426 16.2758 11.5668 16.1712 11.6713C16.0667 11.7759 15.9425 11.8587 15.8059 11.9151C15.6692 11.9715 15.5228 12.0004 15.3749 12Z" fill="white"/>
</svg>