<svg xmlns="http://www.w3.org/2000/svg" width="30" height="30" viewBox="0 0 30 30" fill="none">
  <path d="M24.2805 5.71937C23.0639 4.49075 21.6165 3.51462 20.0216 2.84705C18.4266 2.17949 16.7154 1.83364 14.9864 1.82939C13.2574 1.82513 11.5445 2.16255 9.94631 2.82225C8.34807 3.48196 6.89594 4.45096 5.67333 5.67357C4.45071 6.89618 3.48172 8.34832 2.82201 9.94655C2.1623 11.5448 1.82489 13.2576 1.82914 14.9867C1.8334 16.7157 2.17924 18.4268 2.84681 20.0218C3.51438 21.6168 4.49051 23.0641 5.71912 24.2807C6.9357 25.5093 8.38305 26.4854 9.97802 27.153C11.573 27.8206 13.2841 28.1664 15.0132 28.1707C16.7422 28.1749 18.455 27.8375 20.0533 27.1778C21.6515 26.5181 23.1036 25.5491 24.3262 24.3265C25.5489 23.1039 26.5179 21.6517 27.1776 20.0535C27.8373 18.4553 28.1747 16.7424 28.1704 15.0134C28.1662 13.2844 27.8203 11.5732 27.1528 9.97826C26.4852 8.38329 25.5091 6.93595 24.2805 5.71937ZM10.781 12.1875C11.0592 12.1875 11.331 12.27 11.5623 12.4245C11.7936 12.579 11.9738 12.7987 12.0802 13.0556C12.1867 13.3126 12.2145 13.5953 12.1603 13.8681C12.106 14.1409 11.9721 14.3915 11.7754 14.5882C11.5787 14.7848 11.3282 14.9187 11.0554 14.973C10.7826 15.0273 10.4998 14.9994 10.2429 14.893C9.98593 14.7866 9.7663 14.6063 9.61178 14.3751C9.45726 14.1438 9.37479 13.8719 9.37479 13.5938C9.37432 13.409 9.41038 13.2259 9.48089 13.0551C9.55139 12.8843 9.65496 12.7291 9.78563 12.5984C9.91631 12.4677 10.0715 12.3641 10.2423 12.2936C10.4132 12.2231 10.5962 12.1871 10.781 12.1875ZM20.6055 18.4084C19.9023 20.7698 17.664 22.5 15.0027 22.5C12.3414 22.5 10.1031 20.7698 9.39412 18.4084C9.37429 18.3381 9.37118 18.2641 9.38502 18.1924C9.39887 18.1207 9.42929 18.0531 9.47386 17.9953C9.51843 17.9374 9.57592 17.8907 9.64173 17.859C9.70754 17.8272 9.77986 17.8113 9.85291 17.8125H20.1472C20.2203 17.8114 20.2925 17.8274 20.3582 17.8592C20.424 17.8909 20.4814 17.9376 20.5259 17.9955C20.5704 18.0534 20.6008 18.1208 20.6146 18.1925C20.6284 18.2642 20.6253 18.3382 20.6055 18.4084ZM19.2185 15C18.9404 15 18.6685 14.9176 18.4373 14.763C18.206 14.6085 18.0258 14.3889 17.9193 14.1319C17.8129 13.875 17.785 13.5922 17.8393 13.3194C17.8936 13.0466 18.0275 12.7961 18.2242 12.5994C18.4208 12.4027 18.6714 12.2688 18.9442 12.2146C19.217 12.1603 19.4997 12.1881 19.7567 12.2946C20.0136 12.401 20.2333 12.5813 20.3878 12.8125C20.5423 13.0438 20.6248 13.3157 20.6248 13.5938C20.6253 13.7786 20.5892 13.9617 20.5187 14.1325C20.4482 14.3033 20.3446 14.4585 20.2139 14.5892C20.0833 14.7199 19.9281 14.8234 19.7572 14.8939C19.5864 14.9644 19.4033 15.0005 19.2185 15Z" fill="black"/>
</svg>