<svg xmlns="http://www.w3.org/2000/svg" width="30" height="30" viewBox="0 0 30 30" fill="none">
  <path d="M15 2.8125C8.27988 2.8125 2.8125 8.27988 2.8125 15C2.8125 21.7201 8.27988 27.1875 15 27.1875C21.7201 27.1875 27.1875 21.7201 27.1875 15C27.1875 8.27988 21.7201 2.8125 15 2.8125ZM23.3789 20.625H20.7293C20.6472 20.6248 20.5666 20.6031 20.4955 20.5619C20.4245 20.5208 20.3655 20.4617 20.3244 20.3906L19.3787 18.7688C19.3165 18.6627 19.2984 18.5364 19.3283 18.4172L20.199 14.9062C20.2165 14.8355 20.2502 14.7698 20.2975 14.7144C20.3448 14.6589 20.4044 14.6153 20.4715 14.5869L22.118 13.8896C22.1984 13.8555 22.2868 13.8446 22.3732 13.858C22.4595 13.8715 22.5404 13.9088 22.6066 13.9658L25.0459 16.0646C25.106 16.1164 25.152 16.1826 25.1796 16.257C25.2072 16.3314 25.2154 16.4116 25.2035 16.49C25.0015 17.876 24.5173 19.2057 23.7809 20.3971C23.7393 20.4665 23.6804 20.5241 23.6099 20.564C23.5395 20.6039 23.4599 20.625 23.3789 20.625ZM7.88203 13.8943L9.52852 14.5916C9.59563 14.62 9.65519 14.6636 9.70249 14.7191C9.74979 14.7745 9.78351 14.8402 9.80098 14.9109L10.6717 18.4219C10.7016 18.5411 10.6835 18.6674 10.6213 18.7734L9.67559 20.3906C9.63454 20.4617 9.57553 20.5208 9.50447 20.5619C9.43342 20.6031 9.35281 20.6248 9.2707 20.625H6.62109C6.54096 20.6251 6.46215 20.6046 6.39219 20.5655C6.32223 20.5264 6.26346 20.47 6.22148 20.4018C5.48504 19.2104 5.00084 17.8807 4.79883 16.4947C4.78695 16.4163 4.79518 16.3361 4.82275 16.2617C4.85032 16.1873 4.89632 16.1211 4.95645 16.0693L7.3957 13.9705C7.46173 13.914 7.54218 13.8769 7.62806 13.8634C7.71395 13.85 7.80188 13.8607 7.88203 13.8943V13.8943ZM22.9371 8.78262L21.8783 11.7932C21.857 11.8547 21.8232 11.9111 21.7789 11.9588C21.7346 12.0065 21.6809 12.0445 21.6211 12.0703L19.8879 12.8045C19.8084 12.8381 19.7211 12.8492 19.6357 12.8363C19.5503 12.8235 19.4701 12.7874 19.4039 12.7318L16.1074 9.9668C16.0547 9.92322 16.0122 9.86864 15.9829 9.8069C15.9535 9.74516 15.938 9.67774 15.9375 9.60938V7.6418C15.9375 7.5647 15.9566 7.48881 15.993 7.42085C16.0294 7.35288 16.082 7.29493 16.1461 7.25215L18.6557 5.57988C18.7212 5.53617 18.7966 5.50966 18.8751 5.50279C18.9535 5.49593 19.0324 5.50894 19.1045 5.54062C20.5485 6.17043 21.83 7.12107 22.8516 8.32031C22.9053 8.38301 22.9415 8.45878 22.9565 8.53996C22.9715 8.62114 22.9648 8.70485 22.9371 8.78262V8.78262ZM11.3438 5.57988L13.8539 7.25215C13.918 7.29493 13.9706 7.35288 14.007 7.42085C14.0434 7.48881 14.0625 7.5647 14.0625 7.6418V9.60938C14.0625 9.67785 14.0475 9.74549 14.0185 9.80755C13.9896 9.8696 13.9474 9.92456 13.8949 9.96855L10.5984 12.7336C10.5323 12.7891 10.4521 12.8253 10.3667 12.8381C10.2813 12.8509 10.194 12.8399 10.1145 12.8062L8.37891 12.0703C8.31876 12.0448 8.2646 12.0071 8.2199 11.9595C8.1752 11.9118 8.14095 11.8554 8.11934 11.7937L7.06055 8.7832C7.03303 8.70516 7.02667 8.62122 7.04211 8.53991C7.05755 8.45861 7.09423 8.38284 7.14844 8.32031C8.17061 7.11986 9.45314 6.16838 10.8984 5.53828C10.9703 5.50756 11.0486 5.49528 11.1264 5.50255C11.2041 5.50981 11.2789 5.5364 11.3438 5.57988V5.57988ZM12.358 24.767L11.202 21.8555C11.1755 21.7893 11.1645 21.7179 11.1698 21.6469C11.1751 21.5758 11.1965 21.5069 11.2324 21.4453L12.1213 19.9219C12.1623 19.8508 12.2213 19.7917 12.2924 19.7506C12.3635 19.7094 12.4441 19.6877 12.5262 19.6875H17.4738C17.5559 19.6877 17.6365 19.7094 17.7076 19.7506C17.7787 19.7917 17.8377 19.8508 17.8787 19.9219L18.7682 21.4453C18.8042 21.5068 18.8257 21.5757 18.8311 21.6468C18.8365 21.7179 18.8256 21.7892 18.7992 21.8555L17.6514 24.7658C17.6233 24.837 17.5782 24.9002 17.5201 24.9499C17.462 24.9997 17.3926 25.0344 17.318 25.0512C15.7948 25.4008 14.2122 25.4008 12.6891 25.0512C12.615 25.0342 12.5461 24.9995 12.4885 24.9499C12.4308 24.9004 12.386 24.8377 12.358 24.767V24.767Z" fill="black"/>
</svg>