<svg xmlns="http://www.w3.org/2000/svg" width="23" height="23" viewBox="0 0 23 23" fill="none">
  <path fill-rule="evenodd" clip-rule="evenodd" d="M17.4439 9.46354C16.9887 9.65214 16.5005 9.74855 16.0078 9.7472H15.621C15.5225 9.74718 15.4249 9.76659 15.3338 9.80431C15.2428 9.84204 15.1601 9.89733 15.0904 9.96704L13.4212 11.6363C13.4038 11.6537 13.3899 11.6744 13.3805 11.6971C13.3711 11.7199 13.3662 11.7443 13.3662 11.7689C13.3662 11.7936 13.3711 11.818 13.3805 11.8407C13.3899 11.8635 13.4038 11.8842 13.4212 11.9016L19.7484 18.2288C20.2169 18.6972 20.4801 19.3326 20.4802 19.9951C20.4802 20.6576 20.2171 21.293 19.7486 21.7615C19.2802 22.23 18.6448 22.4932 17.9823 22.4933C17.3198 22.4933 16.6844 22.2302 16.2159 21.7617L16.2117 21.757L11.9906 17.4647C11.5757 17.0447 11.3437 16.4777 11.3451 15.8874V15.6277C11.3445 15.4308 11.2672 15.2419 11.1295 15.1013L10.5956 14.6081C10.4575 14.4801 10.2762 14.4089 10.0879 14.4089C10.0235 14.4091 9.95942 14.4174 9.89713 14.4338C9.64906 14.4986 9.3937 14.5314 9.13729 14.5313C8.333 14.5312 7.56159 14.2121 6.99229 13.6439L2.98682 9.63845C1.3401 7.99407 0.320105 5.76282 0.324792 3.8222C0.324792 2.64704 0.704011 1.65376 1.41417 0.950167C1.5551 0.810567 1.7456 0.732485 1.94397 0.733012C2.14234 0.733539 2.33242 0.812632 2.4726 0.95298L10.5951 9.07595C10.6125 9.09338 10.6332 9.10721 10.656 9.11665C10.6787 9.12608 10.7031 9.13094 10.7278 9.13094C10.7524 9.13094 10.7768 9.12608 10.7996 9.11665C10.8223 9.10721 10.843 9.09338 10.8604 9.07595L12.5296 7.40626C12.5994 7.33654 12.6547 7.25374 12.6925 7.16261C12.7302 7.07148 12.7496 6.9738 12.7495 6.87517V6.48939C12.7481 5.99654 12.8445 5.50831 13.0331 5.05298C13.2217 4.59764 13.4988 4.18425 13.8482 3.83673L17.4553 0.229699C17.6021 0.0828591 17.8012 0.000256927 18.0089 1.10984e-05C18.1921 -0.000997294 18.3691 0.0667431 18.5048 0.189855C18.58 0.258102 18.6405 0.340905 18.6827 0.433244C18.725 0.525584 18.748 0.625536 18.7505 0.727044C18.7529 0.828552 18.7347 0.929502 18.697 1.02377C18.6593 1.11805 18.6028 1.20368 18.531 1.27548L15.3281 4.47751C15.104 4.70157 15.0923 5.08032 15.3164 5.30439C15.4244 5.41227 15.5708 5.47287 15.7235 5.47287C15.8761 5.47287 16.0226 5.41227 16.1306 5.30439L19.3307 2.1047C19.4775 1.95777 19.6766 1.87515 19.8843 1.87501C20.0676 1.874 20.2445 1.94174 20.3803 2.06485C20.4554 2.1331 20.516 2.21591 20.5582 2.30824C20.6004 2.40058 20.6235 2.50054 20.6259 2.60204C20.6284 2.70355 20.6102 2.8045 20.5725 2.89877C20.5348 2.99305 20.4783 3.07868 20.4065 3.15048L17.2035 6.35345C16.9795 6.57751 16.9673 6.95626 17.1918 7.18032C17.2998 7.28821 17.4463 7.34881 17.5989 7.34881C17.7516 7.34881 17.898 7.28821 18.006 7.18032L21.2231 3.96564C21.2949 3.89377 21.3805 3.83724 21.4749 3.79948C21.5692 3.76171 21.6702 3.74351 21.7717 3.74596C21.8733 3.74842 21.9733 3.77148 22.0657 3.81376C22.1581 3.85603 22.2409 3.91663 22.3092 3.99189C22.581 4.29142 22.5548 4.75595 22.2693 5.04142L18.6599 8.64845C18.3125 8.99789 17.8992 9.27493 17.4439 9.46354ZM5.93292 14.707C6.78513 15.553 7.93652 16.0288 9.13729 16.0313C9.29657 16.0304 9.4557 16.0212 9.61401 16.0036C9.64312 16.0002 9.67261 16.0028 9.7007 16.0111C9.72879 16.0195 9.7549 16.0334 9.77746 16.0521C9.80002 16.0708 9.81856 16.0939 9.83195 16.12C9.84535 16.146 9.85333 16.1745 9.85542 16.2038V16.2159C9.8584 16.2478 9.85441 16.2798 9.84372 16.31C9.83303 16.3401 9.81591 16.3675 9.79354 16.3903L4.47979 21.7294C4.23645 21.9744 3.94691 22.1686 3.62795 22.3009C3.309 22.4332 2.96696 22.5009 2.62167 22.5C1.6176 22.5 0.699792 21.9375 0.226823 20.9691C0.199985 20.9144 0.176656 20.858 0.15698 20.8003C-0.194583 19.7766 0.059011 18.7313 0.769167 18.0211L4.75354 14.0574C4.82384 13.9872 4.91909 13.9478 5.01839 13.9478C5.11768 13.9478 5.21293 13.9872 5.28323 14.0574L5.93292 14.707Z" fill="black"/>
</svg>