<svg xmlns="http://www.w3.org/2000/svg" width="30" height="30" viewBox="0 0 30 30" fill="none">
  <path fill-rule="evenodd" clip-rule="evenodd" d="M22.7464 12.7669C22.1773 13.0027 21.5671 13.1232 20.9512 13.1215H20.4678C20.3446 13.1215 20.2226 13.1457 20.1088 13.1929C19.995 13.24 19.8916 13.3092 19.8045 13.3963L17.718 15.4828C17.6962 15.5046 17.6789 15.5304 17.6671 15.5589C17.6553 15.5873 17.6492 15.6178 17.6492 15.6486C17.6492 15.6794 17.6553 15.7099 17.6671 15.7384C17.6789 15.7669 17.6962 15.7927 17.718 15.8145L25.627 23.7235C26.2126 24.309 26.5416 25.1032 26.5417 25.9313C26.5417 26.7595 26.2128 27.5537 25.6272 28.1394C25.0417 28.725 24.2475 29.054 23.4193 29.0541C22.5912 29.0541 21.797 28.7252 21.2113 28.1397L21.2061 28.1338L15.9297 22.7684C15.4111 22.2433 15.1211 21.5346 15.1229 20.7967V20.4721C15.1222 20.226 15.0254 19.9899 14.8533 19.8141L14.1859 19.1977C14.0134 19.0376 13.7867 18.9487 13.5514 18.9486C13.4709 18.9489 13.3907 18.9593 13.3129 18.9797C13.0028 19.0607 12.6836 19.1017 12.3631 19.1016C11.3577 19.1015 10.3935 18.7026 9.68183 17.9924L4.675 12.9856C2.6166 10.9301 1.3416 8.14103 1.34746 5.71525C1.34746 4.2463 1.82148 3.0047 2.70918 2.12521C2.88534 1.95071 3.12347 1.85311 3.37143 1.85376C3.61939 1.85442 3.85699 1.95329 4.03223 2.12872L14.1854 12.2824C14.2071 12.3042 14.233 12.3215 14.2614 12.3333C14.2899 12.3451 14.3204 12.3512 14.3512 12.3512C14.382 12.3512 14.4125 12.3451 14.4409 12.3333C14.4694 12.3215 14.4952 12.3042 14.517 12.2824L16.6035 10.1953C16.6907 10.1082 16.7599 10.0047 16.807 9.89076C16.8542 9.77685 16.8784 9.65475 16.8783 9.53146V9.04923C16.8766 8.43317 16.9971 7.82289 17.2328 7.25372C17.4686 6.68455 17.8149 6.16781 18.2518 5.73341L22.7605 1.22462C22.9441 1.04107 23.193 0.937821 23.4525 0.937514C23.6816 0.936253 23.9028 1.02093 24.0725 1.17482C24.1664 1.26013 24.2421 1.36363 24.2949 1.47906C24.3477 1.59448 24.3765 1.71942 24.3796 1.84631C24.3826 1.97319 24.3599 2.09938 24.3127 2.21722C24.2656 2.33506 24.195 2.4421 24.1053 2.53185L20.1016 6.53439C19.8215 6.81447 19.8068 7.2879 20.0869 7.56798C20.2219 7.70284 20.405 7.77859 20.5958 7.77859C20.7866 7.77859 20.9697 7.70284 21.1047 7.56798L25.1049 3.56837C25.2884 3.38472 25.5373 3.28144 25.7969 3.28126C26.0259 3.28 26.2471 3.36468 26.4168 3.51857C26.5108 3.60388 26.5864 3.70738 26.6392 3.82281C26.692 3.93823 26.7208 4.06317 26.7239 4.19006C26.727 4.31694 26.7042 4.44313 26.6571 4.56097C26.6099 4.67881 26.5394 4.78585 26.4496 4.8756L22.4459 8.87931C22.1658 9.15939 22.1506 9.63283 22.4312 9.9129C22.5663 10.0478 22.7493 10.1235 22.9401 10.1235C23.131 10.1235 23.314 10.0478 23.449 9.9129L27.4703 5.89454C27.5601 5.80471 27.6671 5.73405 27.785 5.68685C27.9029 5.63964 28.0292 5.61689 28.1562 5.61995C28.2831 5.62302 28.4081 5.65185 28.5236 5.7047C28.6391 5.75754 28.7426 5.83329 28.8279 5.92736C29.1678 6.30177 29.135 6.88244 28.7781 7.23927L24.2664 11.7481C23.8321 12.1849 23.3155 12.5312 22.7464 12.7669ZM8.35762 19.3213C9.42289 20.3787 10.8621 20.9735 12.3631 20.9766C12.5622 20.9755 12.7611 20.964 12.959 20.942C12.9954 20.9378 13.0322 20.941 13.0673 20.9514C13.1025 20.9619 13.1351 20.9793 13.1633 21.0027C13.1915 21.026 13.2147 21.0549 13.2314 21.0875C13.2482 21.12 13.2581 21.1557 13.2607 21.1922V21.2074C13.2645 21.2472 13.2595 21.2873 13.2461 21.325C13.2328 21.3626 13.2114 21.3969 13.1834 21.4254L6.54121 28.0992C6.23703 28.4055 5.87511 28.6483 5.47641 28.8136C5.07772 28.979 4.65018 29.0636 4.21855 29.0625C2.96348 29.0625 1.81621 28.3594 1.225 27.1488C1.19145 27.0805 1.16229 27.01 1.13769 26.9379C0.698241 25.6582 1.01523 24.3516 1.90293 23.4639L6.8834 18.5092C6.97127 18.4215 7.09033 18.3723 7.21445 18.3723C7.33858 18.3723 7.45763 18.4215 7.54551 18.5092L8.35762 19.3213Z" fill="white"/>
</svg>