<svg xmlns="http://www.w3.org/2000/svg" width="24" height="24" viewBox="0 0 24 24" fill="none">
  <path d="M9.13211 23.25C9.00645 23.2501 8.88229 23.2227 8.76835 23.1697C8.65442 23.1167 8.55347 23.0394 8.47261 22.9432C8.39175 22.847 8.33293 22.7343 8.30029 22.6129C8.26765 22.4916 8.26197 22.3646 8.28367 22.2408V22.2356L9.60133 15H4.49992C4.35832 15 4.21962 14.9599 4.09985 14.8843C3.98009 14.8088 3.88416 14.7009 3.82316 14.5731C3.76216 14.4453 3.73858 14.3029 3.75515 14.1622C3.77172 14.0216 3.82776 13.8886 3.91679 13.7784L14.1904 1.07813C14.3073 0.929689 14.4697 0.823634 14.6526 0.776183C14.8355 0.728733 15.0289 0.742498 15.2033 0.815376C15.3776 0.888253 15.5233 1.01623 15.6181 1.17974C15.7128 1.34324 15.7514 1.53328 15.7279 1.72079C15.7279 1.73485 15.7241 1.74844 15.7218 1.76251L14.3995 9.00001H19.4999C19.6415 9.00002 19.7802 9.04012 19.9 9.11567C20.0197 9.19122 20.1157 9.29912 20.1767 9.42691C20.2377 9.5547 20.2613 9.69714 20.2447 9.83777C20.2281 9.9784 20.1721 10.1115 20.083 10.2216L9.80805 22.9219C9.72731 23.0239 9.6246 23.1064 9.50757 23.1632C9.39054 23.22 9.2622 23.2497 9.13211 23.25Z" fill="white"/>
</svg>