<svg xmlns="http://www.w3.org/2000/svg" width="62" height="56" viewBox="0 0 62 56" fill="none">
  <path d="M34.7515 53.7787C38.7813 52.828 41.2771 48.7922 40.326 44.7644C39.3748 40.7366 35.337 38.2421 31.3071 39.1928C27.2773 40.1434 24.7815 44.1792 25.7327 48.207C26.6838 52.2348 30.7216 54.7293 34.7515 53.7787Z" fill="#B0F93C" stroke="black"/>
  <path d="M53.0908 4.27758L35.5442 34.6538L43.5885 39.2959L61.1351 8.91964L53.0908 4.27758Z" fill="#B0F93C" stroke="black"/>
  <path d="M20.364 30.9693C25.695 29.4981 30.0734 27.3095 33.499 24.4035C36.9225 21.4997 38.1144 17.4624 37.0737 12.2949C36.5534 9.7117 35.4205 7.42552 33.6739 5.43638C31.9283 3.44831 29.6753 2.03499 26.917 1.19644C24.1576 0.358964 21.1021 0.276396 17.7516 0.950882C14.018 1.70258 11.0216 3.09015 8.76534 5.11254C6.50805 7.136 4.83546 9.40287 3.74759 11.911C2.65649 14.4202 1.74134 17.294 1 20.5292L9.41978 22.2685C10.1429 19.4344 10.8435 17.1643 11.5215 15.4604C12.1985 13.7554 13.1565 12.3303 14.3957 11.1851C15.6338 10.0398 17.2828 9.25918 19.3416 8.84527C21.8295 8.3445 23.8701 8.58148 25.4622 9.55514C27.0533 10.5299 28.051 12.0215 28.4566 14.031C28.9769 16.6142 28.1583 18.6087 26.0019 20.0145C23.8443 21.4203 20.6494 22.6235 16.418 23.625C14.2251 24.1161 12.5289 25.0308 11.3295 26.3669C10.1289 27.7041 9.70302 29.2332 10.0506 30.9564C10.3306 32.3451 11.175 33.8174 12.5847 35.3754L19.907 42.7883L26.2196 37.0364L20.3651 30.9714L20.364 30.9693Z" fill="#B0F93C" stroke="black"/>
</svg>