<svg xmlns="http://www.w3.org/2000/svg" width="64" height="17" viewBox="0 0 64 17" fill="none">
  <path d="M59.2503 14.336C58.4303 14.336 57.6503 14.136 56.8703 13.756C56.0903 13.376 55.4303 12.836 54.9303 12.116C54.3503 11.216 54.0503 10.016 54.0503 8.496C54.0703 6.536 54.1703 4.456 54.3503 2.216C54.4103 1.896 54.5503 1.656 54.8103 1.496C55.0503 1.336 55.2903 1.256 55.5303 1.256C55.8103 1.256 56.1103 1.356 56.4303 1.556C56.7303 1.756 56.8903 2.036 56.8903 2.376C56.6903 4.536 56.5903 6.616 56.5903 8.656C56.5903 9.416 56.6503 10.036 56.7503 10.496C57.1503 11.596 57.8903 12.156 58.9903 12.156C59.6103 12.156 60.1703 11.936 60.6903 11.516C60.5103 10.376 60.4303 9.156 60.4303 7.896C60.4303 5.796 60.6903 3.716 61.2103 1.656C61.2703 1.396 61.4303 1.216 61.6503 1.076C61.8703 0.955997 62.0703 0.895996 62.2703 0.895996C62.5703 0.895996 62.8703 1.016 63.2103 1.236C63.5503 1.456 63.7103 1.756 63.7103 2.116L63.6903 2.316C63.1903 4.236 62.9503 6.176 62.9503 8.136C62.9503 9.536 63.0703 10.936 63.3303 12.316C63.3303 12.716 63.2103 12.996 62.9903 13.136C62.7503 13.296 62.5103 13.376 62.2903 13.376L62.2503 13.356C61.3303 14.016 60.3303 14.336 59.2503 14.336Z" fill="black"/>
  <path d="M48.8514 12.9361C48.2514 12.9361 47.6114 12.8161 47.0114 12.5561C46.0114 12.1361 45.1114 11.4161 44.5714 10.3961C44.1314 9.51607 43.8714 8.51607 43.7714 7.55608C43.7314 7.19607 43.7114 6.81607 43.7114 6.45607C43.7114 5.13607 43.9914 3.77607 44.4714 2.73607V2.53607C44.4714 2.39607 44.5314 2.19607 44.6314 2.01607C44.8114 1.79607 45.0914 1.65607 45.2314 1.61607C45.3314 1.53607 45.6114 1.47607 45.7914 1.47607C46.2314 1.47607 46.7914 1.73607 46.9714 1.95608C47.1714 2.01607 47.5714 2.03607 47.9914 2.09608C48.6114 2.21607 49.2114 2.39607 49.7714 2.67607C50.7914 3.21607 51.7714 4.09608 52.4114 5.07607C52.9514 5.93608 53.2114 6.93608 53.2114 7.89608C53.2114 8.89608 52.9314 9.95608 52.4514 10.8561C51.6914 12.2161 50.2714 12.9361 48.8514 12.9361ZM48.6514 10.8161C49.9114 10.8161 50.6714 9.11608 50.6714 7.73608C50.6714 6.71607 50.2914 5.83607 49.4514 5.09608C48.9514 4.63608 48.4314 4.33607 47.7914 4.21607C47.3314 4.11608 46.8514 4.07608 46.6914 4.03607C46.4114 4.65608 46.2314 5.61608 46.2314 6.61607C46.2314 8.35607 46.6514 10.3761 48.2914 10.7761L48.6514 10.8161Z" fill="black"/>
  <path d="M36.3322 16.576C36.0322 16.576 35.7322 16.456 35.4122 16.216C35.0722 15.976 34.9122 15.696 34.9122 15.356C34.9122 15.216 34.9522 15.056 35.0322 14.876C35.9322 13.176 36.7522 11.596 37.4922 10.156C36.0722 8.056 34.4322 6.016 32.5522 4.036C32.3722 3.856 32.2922 3.656 32.2922 3.416C32.2922 3.236 32.3522 3.056 32.4922 2.876C32.6322 2.696 32.7722 2.556 32.9522 2.496C33.1322 2.436 33.2722 2.396 33.4122 2.396C33.8722 2.396 34.2522 2.576 34.5722 2.916C36.2522 4.696 37.6122 6.316 38.6322 7.756C39.2122 6.556 39.8322 4.996 40.4922 3.076C40.5922 2.856 40.7522 2.676 40.9722 2.556C41.1922 2.456 41.3922 2.396 41.5922 2.396C41.8922 2.396 42.1922 2.496 42.5322 2.716C42.8522 2.936 43.0122 3.216 43.0122 3.556L42.9522 3.816C42.1322 6.116 41.2522 8.236 40.3122 10.176L40.2322 10.096C40.3722 10.316 40.4322 10.516 40.4322 10.696C40.4322 10.876 40.3722 11.036 40.2722 11.176C40.0322 11.436 39.7922 11.596 39.5722 11.636C38.8722 13.016 38.1122 14.496 37.2722 16.036C37.0722 16.396 36.7522 16.576 36.3322 16.576Z" fill="black"/>
  <path d="M22.64 14.836C21.78 14.836 21.26 14.456 21.08 13.716C21.08 13.576 21.1 13.456 21.16 13.336C21.22 13.216 21.26 13.116 21.32 13.036C21.36 12.976 21.38 12.936 21.4 12.916C20.94 10.376 20.62 7.87604 20.44 5.39604L20.02 5.45603C19.16 5.45603 18.64 5.07603 18.46 4.33603C18.46 4.07604 18.56 3.83603 18.76 3.63603C18.96 3.45603 19.18 3.33604 19.4 3.31603L20.32 3.23603C20.32 3.01603 20.44 2.83603 20.7 2.67603C20.96 2.51603 21.2 2.43604 21.42 2.43604C21.7 2.43604 22 2.51604 22.3 2.65603C22.6 2.81603 22.78 2.97603 22.8 3.13603C25.56 3.13603 27.22 3.33604 27.8 3.71603C28.08 3.89603 28.24 4.17603 28.28 4.51603C28.28 4.87603 28.16 5.13603 27.9 5.29603C27.64 5.45603 27.34 5.53603 27.04 5.53603C25.8 5.35603 24.54 5.27604 23.28 5.27604L22.94 5.29603L23.16 7.77603C23.7 7.67603 24.26 7.61604 24.84 7.61604L25.26 7.63603C25.52 7.65604 25.8 7.75603 26.08 7.95603C26.36 8.17603 26.52 8.43603 26.56 8.75603C26.56 9.11603 26.42 9.37604 26.14 9.53604C25.86 9.71603 25.6 9.79604 25.34 9.79604L24.96 9.77604C24.38 9.77604 23.82 9.85603 23.28 10.016L23.22 10.056C23.24 10.076 23.32 10.076 23.46 10.076C23.68 11.636 23.8 12.456 23.84 12.556L27.44 12.236C28.3 12.236 28.82 12.616 29 13.356C29 13.616 28.9 13.836 28.7 14.036C28.5 14.236 28.28 14.356 28.04 14.376L22.64 14.836Z" fill="black"/>
  <path d="M14.0364 6.81607C14.3364 6.81607 14.5764 6.61607 14.7364 6.23607C14.8964 5.85607 14.9764 5.45607 14.9764 5.03607C14.9364 4.49607 14.7964 4.05607 14.5764 3.71607C14.3364 3.37607 14.0364 3.19607 13.6764 3.15608C13.6964 3.29607 13.7164 3.49607 13.7764 3.75607C13.8764 4.29607 13.9964 5.29607 14.0964 6.77607H13.7964C13.8964 6.79607 13.9764 6.81607 14.0364 6.81607ZM13.0564 14.7561C12.7564 14.7561 12.4564 14.6561 12.1364 14.4361C11.8164 14.2361 11.6564 13.9561 11.6564 13.6161L11.6764 10.8761C11.6764 9.75608 11.6564 8.63607 11.6164 7.51607C11.4764 5.19607 11.3364 3.71607 11.1764 3.05607C11.1164 2.71607 11.0764 2.43607 11.0764 2.21607C11.0764 1.97607 11.1364 1.73607 11.2764 1.51607C11.4964 1.21607 11.8164 1.05607 12.2564 1.05607L12.4364 1.07607C12.7164 1.01607 12.9964 0.976074 13.2964 0.976074C14.2764 0.976074 15.1564 1.31607 15.9364 1.99607C16.9964 2.91607 17.5164 4.05607 17.5164 5.39607C17.5164 5.83607 17.4364 6.27607 17.2964 6.73607C17.0964 7.31607 16.7564 7.81607 16.2964 8.21607L16.5364 8.53608C17.1164 9.49608 17.8364 10.3561 18.6964 11.1161C18.9764 11.3761 19.1164 11.6361 19.1164 11.8961C19.1164 12.1761 18.9764 12.4161 18.7164 12.5961C18.4364 12.7761 18.1564 12.8761 17.8964 12.8761C17.5564 12.8761 17.2564 12.7761 17.0164 12.5561C16.1164 11.7961 15.3364 10.9361 14.6564 9.95608L14.1964 9.25607L14.1764 13.7561C14.1764 14.0961 14.0564 14.3361 13.7964 14.4961C13.5364 14.6761 13.2964 14.7561 13.0564 14.7561Z" fill="black"/>
  <path d="M5.23224 8.29588C5.45224 8.29588 5.77224 8.27588 6.15224 8.25588C6.53224 8.23588 6.89224 8.21588 7.19224 8.19588C7.11224 6.89588 6.89224 5.83588 6.55224 4.97588C6.07224 5.95588 5.63224 7.05588 5.23224 8.29588ZM8.41224 15.6959C8.09224 15.6959 7.79224 15.5959 7.49224 15.3759C7.19224 15.1759 7.05224 14.8959 7.05224 14.5359C7.19224 13.1159 7.27224 11.7159 7.27224 10.3559C6.69224 10.3959 5.81224 10.4359 4.63224 10.4759C4.37224 11.5359 4.15224 12.7559 3.97224 14.1359C3.95224 14.1559 3.95224 14.1959 3.95224 14.2559C3.95224 14.5559 3.81224 14.7959 3.55224 14.9559C3.33224 15.0959 3.13224 15.1759 2.93224 15.1759C2.57224 15.1759 2.23224 15.0359 1.93224 14.7759C1.61224 14.5159 1.45224 14.1959 1.45224 13.7959C1.61224 12.4159 1.79224 11.3159 1.99224 10.4959L1.53224 10.4759C1.17224 10.4559 0.872236 10.3159 0.652236 10.0559C0.412236 9.79588 0.292236 9.55588 0.292236 9.29588C0.292236 9.07588 0.392236 8.85588 0.592236 8.63588C0.792236 8.43588 1.07224 8.33588 1.41224 8.33588H2.55224C3.13224 6.37588 3.97224 4.35588 5.09224 2.27588C5.29224 1.93588 5.59224 1.77588 6.01224 1.77588C6.31224 1.77588 6.59224 1.85588 6.83224 2.01588C7.09224 2.01588 7.35224 2.09588 7.59224 2.23588C7.83224 2.37588 8.01224 2.55588 8.13224 2.77588C9.25224 4.81588 9.81224 7.35588 9.81224 10.4159C9.81224 13.4959 9.59224 15.1759 9.15224 15.4559C8.89224 15.6159 8.65224 15.6959 8.41224 15.6959Z" fill="black"/>
</svg>