<svg xmlns="http://www.w3.org/2000/svg" width="122" height="36" viewBox="0 0 122 36" fill="none">
  <path d="M117.34 27.3601C115.996 27.3601 114.124 26.3521 114.124 24.7201V24.576C114.604 17.904 115.132 11.2801 115.66 4.65605C115.804 3.12005 117.34 2.35205 118.492 2.35205C119.836 2.35205 121.708 3.36005 121.708 4.99205L120.172 25.0081C120.028 26.5441 118.492 27.3601 117.34 27.3601ZM115.948 34.9441C114.748 34.9441 112.876 33.7441 112.78 32.2561V32.1601C112.78 30.4321 114.652 29.8081 115.708 29.8081C116.812 29.8081 118.828 31.0081 118.828 32.5441V32.5921C118.828 34.368 116.956 34.9441 115.948 34.9441Z" fill="black"/>
  <path d="M99.9861 27.8879C98.4981 27.8879 96.4341 26.6879 96.4341 25.1999C96.4341 24.7679 96.6741 24.1919 97.0101 23.8079C99.3141 21.2639 101.57 18.7199 103.778 16.1279C105.506 14.1119 107.714 11.8079 107.762 9.35993C107.762 7.58393 105.938 5.75993 104.066 5.75993C103.922 5.75993 103.778 5.75993 103.634 5.80793C101.906 6.14393 101.426 8.78393 100.994 10.7039C100.706 11.9519 99.4581 12.5759 98.4501 12.5759C97.0581 12.5759 94.9941 11.3759 94.9941 9.64793L95.0421 9.21593C95.8101 5.90393 97.2501 1.91993 101.186 0.863927C101.858 0.671926 102.626 0.575928 103.346 0.575928C106.754 0.575928 110.45 2.73593 112.37 5.37593C113.33 6.71993 113.762 8.25593 113.762 9.64793C113.762 12.2399 112.418 14.8799 110.882 16.8959C108.146 20.4479 105.122 23.7599 102.146 26.9759C101.618 27.5999 100.706 27.8879 99.9861 27.8879ZM99.8421 35.9999C98.6901 35.9999 96.8181 34.7999 96.7221 33.3119V33.2159C96.7221 31.4399 98.5941 30.8159 99.6501 30.8159C100.802 30.8159 102.674 32.0639 102.77 33.5039V33.5999C102.77 35.3759 100.898 35.9999 99.8421 35.9999Z" fill="black"/>
  <path d="M77.6419 33.936C75.5779 33.936 74.3299 33.024 73.8979 31.248C73.8979 30.912 73.9459 30.624 74.0899 30.336C74.2339 30.048 74.3299 29.808 74.4739 29.616C74.5699 29.472 74.6179 29.376 74.6659 29.328C73.5619 23.232 72.7939 17.232 72.3619 11.28L71.3539 11.424C69.2899 11.424 68.0419 10.512 67.6099 8.73602C67.6099 8.11203 67.8499 7.53603 68.3299 7.05603C68.8099 6.62403 69.3379 6.33603 69.8659 6.28802L72.0739 6.09602C72.0739 5.56802 72.3619 5.13602 72.9859 4.75202C73.6099 4.36803 74.1859 4.17603 74.7139 4.17603C75.3859 4.17603 76.1059 4.36803 76.8259 4.70402C77.5459 5.08803 77.9779 5.47203 78.0259 5.85602C84.6499 5.85602 88.6339 6.33603 90.0259 7.24803C90.6979 7.68003 91.0819 8.35203 91.1779 9.16802C91.1779 10.032 90.8899 10.656 90.2659 11.04C89.6419 11.424 88.9219 11.616 88.2019 11.616C85.2259 11.184 82.2019 10.992 79.1779 10.992L78.3619 11.04L78.8899 16.992C80.1859 16.752 81.5299 16.608 82.9219 16.608L83.9299 16.656C84.5539 16.704 85.2259 16.944 85.8979 17.424C86.5699 17.952 86.9539 18.576 87.0499 19.344C87.0499 20.208 86.7139 20.832 86.0419 21.216C85.3699 21.648 84.7459 21.84 84.1219 21.84L83.2099 21.792C81.8179 21.792 80.4739 21.984 79.1779 22.368L79.0339 22.464C79.0819 22.512 79.2739 22.512 79.6099 22.512C80.1379 26.256 80.4259 28.224 80.5219 28.464L89.1619 27.696C91.2259 27.696 92.4739 28.608 92.9059 30.384C92.9059 31.008 92.6659 31.536 92.1859 32.016C91.7059 32.496 91.1779 32.784 90.6019 32.832L77.6419 33.936Z" fill="black"/>
  <path d="M53.3175 31.8239C51.9255 31.8239 49.9095 30.6719 49.9095 28.9439L49.9575 28.4159C51.3495 23.2799 52.0215 18.1439 52.0215 12.8639C52.0215 11.5199 51.9735 10.1759 51.8775 8.83188V8.15988C51.8295 8.15988 51.6855 8.39988 51.3015 9.02388C50.1015 9.07188 47.0295 9.16788 44.0535 9.16788C42.7575 9.16788 40.9335 7.96788 40.8855 6.47988C40.8855 4.70388 42.6135 4.03188 43.8135 4.03188C50.5335 3.93588 57.3015 3.55188 64.1175 2.87988C65.4615 2.87988 67.1895 3.40788 67.6695 4.94388L67.8135 5.56788C67.8135 6.81588 66.6135 7.91988 65.5575 8.01588C62.4375 8.35188 59.2695 8.59188 59.0295 8.59188C58.3575 8.15988 58.0215 7.96788 57.8775 7.96788C57.7815 7.96788 57.7815 8.01588 57.7815 8.11188C57.7815 8.30388 57.8775 8.63988 57.9255 9.02388C58.0215 10.5119 58.0695 11.9999 58.0695 13.4879C58.0695 19.0559 57.3495 24.6239 55.8615 29.9999C55.5735 31.1999 54.2775 31.8239 53.3175 31.8239Z" fill="black"/>
  <path d="M29.0196 18.2398C29.5476 18.2398 30.3156 18.1918 31.2276 18.1438C32.1396 18.0958 33.0036 18.0478 33.7236 17.9998C33.5316 14.8798 33.0036 12.3358 32.1876 10.2718C31.0356 12.6238 29.9796 15.2638 29.0196 18.2398ZM36.6516 35.9998C35.8836 35.9998 35.1636 35.7598 34.4436 35.2318C33.7236 34.7518 33.3876 34.0798 33.3876 33.2158C33.7236 29.8078 33.9156 26.4478 33.9156 23.1838C32.5236 23.2798 30.4116 23.3758 27.5796 23.4718C26.9556 26.0158 26.4276 28.9438 25.9956 32.2558C25.9476 32.3038 25.9476 32.3998 25.9476 32.5438C25.9476 33.2638 25.6116 33.8398 24.9876 34.2238C24.4596 34.5598 23.9796 34.7518 23.4996 34.7518C22.6356 34.7518 21.8196 34.4158 21.0996 33.7918C20.3316 33.1678 19.9476 32.3998 19.9476 31.4398C20.3316 28.1278 20.7636 25.4878 21.2436 23.5198L20.1396 23.4718C19.2756 23.4238 18.5556 23.0878 18.0276 22.4638C17.4516 21.8398 17.1636 21.2638 17.1636 20.6398C17.1636 20.1118 17.4036 19.5838 17.8836 19.0558C18.3636 18.5758 19.0356 18.3358 19.8516 18.3358H22.5876C23.9796 13.6318 25.9956 8.7838 28.6836 3.7918C29.1636 2.97579 29.8836 2.5918 30.8916 2.5918C31.6116 2.5918 32.2836 2.7838 32.8596 3.1678C33.4836 3.1678 34.1076 3.3598 34.6836 3.6958C35.2596 4.0318 35.6916 4.4638 35.9796 4.9918C38.6676 9.8878 40.0116 15.9838 40.0116 23.3278C40.0116 30.7198 39.4836 34.7518 38.4276 35.4238C37.8036 35.8078 37.2276 35.9998 36.6516 35.9998Z" fill="black"/>
  <path d="M16.8042 30.048L6.77224 29.664C5.47624 29.616 3.65224 29.616 2.69224 28.464C2.83624 28.464 2.88424 28.224 2.88424 27.792C2.88424 25.392 0.868236 16.272 0.292236 4.51196C0.292236 2.87997 1.63624 2.06396 2.88424 2.06396C4.27624 2.06396 6.24424 3.07197 6.34024 4.75196L7.34824 24.336L6.48424 24.48C6.72424 24.48 7.25224 24.576 16.5162 24.864C18.2442 24.912 19.4922 26.496 19.4922 27.696C19.4922 28.8 18.4842 30.048 16.8042 30.048Z" fill="black"/>
</svg>